<svg xmlns="http://www.w3.org/2000/svg" fill="none" viewBox="0 0 24 24" id="Ethers--Streamline-Svg-Logos" height="24" width="24">
  <path fill="#24339b" d="M23.75 17.33005c-12.286 1.60565 -21.055125 3.534175 -21.18485 -4.381675 0 0 0.268075 -3.0672 4.03 -3.260325 0 0 0.126825 -2.72415 3.000875 -3.0326 1.5451 -0.167175 3.300675 1.42405 3.490925 3.0989 0 0 3.80225 -0.703375 3.966575 3.00375 0.05765 1.29145 -0.2335 3.48805 -3.900275 3.392925 0 0 -2.12165 -0.288275 -2.409925 -3.56875 -0.596725 6.35055 8.584625 5.98155 8.71725 0.2133 0.05765 -2.493525 -1.539375 -5.0591 -5.13695 -4.5777 -1.971775 -4.9611 -7.221125 -4.6757 -9.1756 -0.07495 -2.7933175 0 -4.929386 2.150475 -4.8976775 4.958225C0.3570075 22.138375 12.934175 19.414225 23.75 17.33005Z" stroke-width="0.25"></path>
</svg>