<svg width="41" height="41" viewBox="0 0 41 41" fill="none" xmlns="http://www.w3.org/2000/svg">
<rect x="0.0600586" width="40" height="40" rx="5.00074" transform="rotate(0.0857081 0.0600586 0)" fill="#FF3B57"/>
<circle cx="18" cy="18" r="18" transform="matrix(-1 0 0 1 37.9999 2)" fill="#FF3B57"/>
<path d="M28.6507 14.6372C28.6686 15.1595 28.72 15.9682 27.9536 15.7842C27.1871 15.6001 26.3603 15.3402 24.338 15.6121C22.7969 15.8193 21.7695 16.28 20.824 16.6792C19.6192 17.1879 19.2051 17.416 18.2598 17.8322C16.5109 18.6022 15.635 18.6322 14.9742 18.6548C14.4422 18.673 13.3027 18.5984 12.3857 17.7422C12.3857 17.7422 11.6439 16.9936 11.4468 15.876C11.3555 15.358 11.3645 15.337 11.3576 14.6981C11.3046 9.84274 15.1178 5.83968 19.845 5.78809C24.5722 5.73649 28.5963 9.65401 28.6507 14.6372Z" fill="white"/>
<path d="M13.093 19.7056C11.9235 18.9083 11.334 20.0812 11.7005 20.6535L20.1915 34.8641C20.3052 35.0942 20.6308 35.0871 20.7342 34.8522L28.5262 18.7466C28.7802 18.0712 28.6496 17.5962 27.953 17.3634C26.5826 16.9052 25.5218 17.0124 24.5832 17.2044C23.1168 17.5045 22.0274 17.942 20.7352 18.4355C20.5556 18.5041 19.9154 18.7647 18.4822 19.3721C17.0491 19.9794 16.5709 20.1019 15.9583 20.2273C14.6091 20.5033 13.826 20.2053 13.093 19.7056Z" fill="white"/>
</svg>
