<svg viewBox="0 0 16 16" fill="none" xmlns="http://www.w3.org/2000/svg" id="Github-Logo--Streamline-Radix" height="16" width="16">
  <desc>
    Github Logo Streamline Icon: https://streamlinehq.com
  </desc>
  <path fill-rule="evenodd" clip-rule="evenodd" d="M7.999285333333333 0.26666666666666666C3.72944 0.26666666666666666 0.26666666666666666 3.728992 0.26666666666666666 8.000256c0 3.4162773333333334 2.2156266666666666 6.315050666666666 5.28864 7.338090666666666 0.3869226666666667 0.07071999999999999 0.5279146666666666 -0.168 0.5279146666666666 -0.37312 0 -0.18378666666666668 -0.006645333333333334 -0.6698666666666666 -0.010442666666666666 -1.3150933333333334 -2.1510613333333333 0.4672 -2.6049173333333333 -1.0368 -2.6049173333333333 -1.0368 -0.35178666666666664 -0.89344 -0.8588053333333333 -1.1313066666666667 -0.8588053333333333 -1.1313066666666667 -0.702144 -0.47946666666666665 0.05317333333333333 -0.4699733333333333 0.05317333333333333 -0.4699733333333333 0.7762026666666666 0.05461333333333333 1.18448 0.7971199999999999 1.18448 0.7971199999999999 0.6898026666666667 1.1815466666666665 1.8101973333333332 0.8402133333333333 2.2507626666666667 0.6422399999999999 0.07026133333333333 -0.4994133333333333 0.2701226666666667 -0.84032 0.49088 -1.0334933333333334 -1.717152 -0.19562666666666667 -3.522592 -0.8587946666666666 -3.522592 -3.822144 0 -0.844576 0.3014613333333333 -1.534368 0.7961386666666667 -2.075104 -0.07975466666666667 -0.19559466666666667 -0.3451306666666667 -0.9817813333333333 0.07595733333333332 -2.046634666666667 0 0 0.6489706666666667 -0.20794666666666667 2.1263786666666666 0.7923413333333333 0.6166933333333334 -0.17138133333333333 1.2784853333333333 -0.256832 1.936 -0.26016 0.6570453333333333 0.003328 1.318368 0.08877866666666666 1.9360106666666665 0.26016 1.476448 -1.000288 2.124448 -0.7923413333333333 2.124448 -0.7923413333333333 0.42208 1.0648533333333332 0.15669333333333332 1.85104 0.07744 2.046634666666667 0.49557333333333337 0.5407359999999999 0.7946666666666666 1.230528 0.7946666666666666 2.075104 0 2.9709440000000003 -1.80832 3.624704 -3.530645333333333 3.815957333333333 0.277248 0.23882666666666666 0.5245973333333334 0.71072 0.5245973333333334 1.43232 0 1.0334933333333334 -0.009503999999999999 1.8676266666666665 -0.009503999999999999 2.121173333333333 0 0.20693333333333333 0.139584 0.44768 0.5317226666666667 0.37216C13.519573333333334 14.312426666666665 15.733333333333333 11.416 15.733333333333333 8.000256 15.733333333333333 3.728992 12.270506666666668 0.26666666666666666 7.999285333333333 0.26666666666666666Z" fill="#000000" stroke-width="1.0667"></path>
</svg>